<svg width="100" height="100" viewBox="0 0 100 100" fill="none" xmlns="http://www.w3.org/2000/svg">
<g clip-path="url(#clip0_51_19)">
<path fill-rule="evenodd" clip-rule="evenodd" d="M21.5019 21.137L0.246094 42.2739L0.691747 46.8348C1.5903 56.0362 5.98595 65.0377 12.9932 72.0254C20.8417 79.8522 30.3287 83.9529 40.5215 83.9239L46.3802 83.908L41.6802 81.3754C17.7903 68.5036 15.5171 34.758 37.4946 19.2254C44.92 13.9768 49.286 12.6348 59.0613 12.5964C65.3483 12.5717 68.1432 12.8703 70.4432 13.8138C74.9744 15.671 74.8323 14.208 70.1164 10.4609C62.5388 4.43913 55.1338 1.33261 46.0178 0.351449L42.757 0L21.5019 21.137ZM54.1729 16.3101C53.6765 16.5072 55.236 17.65 57.6389 18.8507C66.3707 23.2145 73.7475 32.8667 76.1519 43.0732C77.9932 50.8899 76.7657 61.087 73.1396 68.1C68.3012 77.4551 57.9236 85.3377 47.6128 87.4877C40.9026 88.887 36.0099 88.4754 26.4526 85.708C24.6512 85.1862 24.6533 85.1964 26.8149 87.5362C29.1715 90.0877 35.6468 94.6428 39.1338 96.2029C43.6729 98.2333 50.1381 99.8717 53.6309 99.8768L57.2591 99.8826L78.1896 78.9428L99.1207 58.0029L98.6222 53.5957C97.47 43.4152 92.9802 34.5391 85.3519 27.3609C80.3867 22.6891 73.67 18.8181 68.1004 17.4181C64.6193 16.5428 55.4287 15.8116 54.1729 16.3101Z" fill="#7275ED"/>
</g>
<defs>
<clipPath id="clip0_51_19">
<rect width="99.2754" height="100" fill="white" transform="translate(0.246094)"/>
</clipPath>
</defs>
</svg>
