<svg width="84" height="100" viewBox="0 0 84 100" fill="none" xmlns="http://www.w3.org/2000/svg">
<g clip-path="url(#clip0_51_17)">
<path fill-rule="evenodd" clip-rule="evenodd" d="M76.288 6.7356L69.6335 13.4712V19.8V26.1288L71.8586 27.1283C76.7607 29.3293 81.6974 35.3874 82.688 40.4173C82.9634 41.8162 83.1529 34.5817 83.1885 21.3351C83.2204 9.60052 83.1775 0 83.0942 0C83.0105 0 79.9476 3.03089 76.288 6.7356ZM1.05759 27.9654C1.03037 52.6335 1.22042 57.3466 2.21571 56.7314C2.52618 56.5393 2.59424 56.8419 2.38691 57.4937C1.89215 59.0539 4.32356 63.5372 7.24241 66.4466C9.57225 68.7681 13.1115 70.8189 16.4702 71.7921C18.2545 72.3089 62.622 72.4539 64.633 71.9492L65.9686 71.6141L65.9518 63.4251L65.9356 55.2356L64.6639 56.6806C63.9644 57.4754 62.7785 58.3586 62.0288 58.644C60.1168 59.3707 20.5445 59.334 18.4492 58.6037C17.545 58.2885 16.256 57.1524 15.4916 55.9969L14.1361 53.9492V34.6764V15.4042L9.03717 10.4508C6.23298 7.72618 3.29634 4.9534 2.51152 4.28848L1.08429 3.07958L1.05759 27.9654ZM18.4555 27.8005L16.7539 28.3021L16.766 37.0571C16.7775 45.5874 16.8 45.766 17.6492 44.0424C19.1979 40.899 19.6806 40.8377 42.7843 40.8398C62.7518 40.8414 63.6843 40.8853 65.3456 41.8984C68.4859 43.8131 68.5864 44.5393 68.5864 65.334V84.1047L75.1298 90.7435C78.7283 94.3948 81.7911 97.3822 81.9361 97.3822C82.0806 97.3822 82.199 85.5115 82.199 71.0026C82.199 41.9178 82.2194 42.1288 78.8293 36.4869C77.3733 34.0639 72.2257 29.3974 70.9424 29.3372C70.6545 29.3241 69.712 28.9021 68.8482 28.4C67.4246 27.5723 65.0696 27.478 43.7173 27.3932C29.9293 27.3382 19.4513 27.5073 18.4555 27.8005ZM0.0350782 79.3115L0 99.7225L6.5445 93.1937L13.089 86.6649L13.0754 80.1126L13.0618 73.5602L10.8597 72.5429C6.56806 70.5602 2.15445 65.5293 0.728272 60.9948C0.173823 59.2309 0.0643974 62.1188 0.0350782 79.3115Z" fill="#293DCB"/>
</g>
<defs>
<clipPath id="clip0_51_17">
<rect width="83.2461" height="100" fill="white"/>
</clipPath>
</defs>
</svg>
