<svg width="100" height="100" viewBox="0 0 100 100" fill="none" xmlns="http://www.w3.org/2000/svg">
<g clip-path="url(#clip0_51_15)">
<path fill-rule="evenodd" clip-rule="evenodd" d="M39.9475 0.730293C20.9094 4.86019 6.48516 18.3963 1.35425 36.9458C0.110947 41.4416 -0.0251358 42.7741 0.00321471 50.1916C0.0315652 57.6077 0.174864 58.9067 1.4259 63.0783C6.73361 80.7789 18.8223 92.8691 36.5388 98.1948C40.7084 99.4484 42.013 99.5933 49.4254 99.6278C56.4237 99.6608 58.3361 99.4907 62.0541 98.5052C79.317 93.9283 92.7686 80.8222 97.9098 63.5675C99.5505 58.0619 100.166 47.8679 99.2232 41.8097C96.0562 21.453 79.6629 4.57772 59.2912 0.70452C54.2954 -0.245481 44.3841 -0.232595 39.9475 0.730293ZM60.7655 6.55299C72.8964 9.77309 83.9196 18.4834 89.3021 29.1009C96.9186 44.1272 95.9969 60.8392 86.7918 74.6C80.4732 84.0459 71.4613 90.4015 60.4314 93.1907C54.582 94.6701 44.8114 94.6871 39.0697 93.2278C35.5228 92.3263 26.4872 88.5103 26.4872 87.9134C26.4872 87.7969 28.0532 88.1402 29.9666 88.6763C51.3429 94.6644 74.0696 81.401 79.516 59.7588C80.9784 53.9479 81.017 45.502 79.6072 39.9886C76.0845 26.2148 65.8263 15.6215 51.7227 11.1927C48.4006 10.1494 46.8651 9.9901 40.4047 10.0195C35.1609 10.0432 32.0846 10.2999 30.096 10.8793C28.5372 11.3334 27.181 11.6241 27.0821 11.5257C26.8073 11.2504 30.9321 9.23907 34.6151 7.85299C42.2207 4.99009 52.882 4.46019 60.7655 6.55299ZM49.1676 15.2566C52.5897 16.07 58.7263 18.8045 61.0005 20.5298C62.1237 21.3819 61.783 21.3504 57.9784 20.2483C43.4125 16.0293 28.2908 22.6834 21.5599 36.2741C15.6233 48.2607 17.9357 61.9546 27.5295 71.6263C35.7238 79.8861 47.3697 82.8216 58.3418 79.3923C64.5304 77.4577 58.5485 81.3557 51.6232 83.7701C46.5862 85.5263 38.1248 85.9783 32.9305 84.7686C24.7017 82.8526 15.9022 76.9778 11.4578 70.4335C6.82691 63.6144 5.15835 58.0799 5.19856 49.6762C5.22897 43.2896 6.14237 39.0313 8.50165 34.2757C16.0532 19.0556 32.597 11.3185 49.1676 15.2566ZM55.5113 24.4143C61.883 26.0736 66.8624 29.4767 70.4593 34.6308C74.0892 39.8313 75.4206 43.8999 75.4438 49.8597C75.4876 61.2598 67.8603 71.6335 56.9758 74.9778C44.9898 78.6608 31.6315 72.9742 26.0439 61.8098C20.5826 50.8989 22.5924 39.3092 31.4321 30.7391C37.6161 24.7427 47.1542 22.2375 55.5113 24.4143Z" fill="#E7B57C"/>
</g>
<defs>
<clipPath id="clip0_51_15">
<rect width="100" height="100" fill="white"/>
</clipPath>
</defs>
</svg>
